<mxfile host="app.diagrams.net" modified="2021-08-12T08:32:24.295Z" agent="5.0 (Windows NT 10.0; Win64; x64) AppleWebKit/537.36 (KHTML, like Gecko) Chrome/92.0.4515.131 Safari/537.36" etag="Y9NVJzNi_xr63SQwt4g5" version="14.9.6" type="github">
  <diagram id="C5RBs43oDa-KdzZeNtuy" name="Page-1">
    <mxGraphModel dx="1145" dy="2936" grid="1" gridSize="10" guides="1" tooltips="1" connect="1" arrows="1" fold="1" page="1" pageScale="1" pageWidth="827" pageHeight="1169" math="0" shadow="0">
      <root>
        <mxCell id="WIyWlLk6GJQsqaUBKTNV-0" />
        <mxCell id="WIyWlLk6GJQsqaUBKTNV-1" parent="WIyWlLk6GJQsqaUBKTNV-0" />
        <mxCell id="Qf0AHFLNtZsmSkByr8iH-2" value="&lt;font style=&quot;font-size: 18px&quot;&gt;super admin&lt;/font&gt;" style="rounded=1;whiteSpace=wrap;html=1;" vertex="1" parent="WIyWlLk6GJQsqaUBKTNV-1">
          <mxGeometry x="200" y="-1165" width="120" height="60" as="geometry" />
        </mxCell>
        <mxCell id="Qf0AHFLNtZsmSkByr8iH-3" value="" style="endArrow=classic;html=1;entryX=0.5;entryY=0;entryDx=0;entryDy=0;" edge="1" parent="WIyWlLk6GJQsqaUBKTNV-1" source="Qf0AHFLNtZsmSkByr8iH-2" target="Qf0AHFLNtZsmSkByr8iH-5">
          <mxGeometry width="50" height="50" relative="1" as="geometry">
            <mxPoint x="120" y="-845" as="sourcePoint" />
            <mxPoint x="130" y="-875" as="targetPoint" />
          </mxGeometry>
        </mxCell>
        <mxCell id="Qf0AHFLNtZsmSkByr8iH-5" value="&lt;font style=&quot;font-size: 18px&quot;&gt;panel admin&lt;/font&gt;" style="rounded=1;whiteSpace=wrap;html=1;" vertex="1" parent="WIyWlLk6GJQsqaUBKTNV-1">
          <mxGeometry x="200" y="-950" width="120" height="60" as="geometry" />
        </mxCell>
        <mxCell id="Qf0AHFLNtZsmSkByr8iH-7" value="&lt;span style=&quot;font-size: 18px&quot;&gt;panel customer&lt;/span&gt;" style="rounded=1;whiteSpace=wrap;html=1;" vertex="1" parent="WIyWlLk6GJQsqaUBKTNV-1">
          <mxGeometry x="200" y="-732.5" width="120" height="60" as="geometry" />
        </mxCell>
        <mxCell id="Qf0AHFLNtZsmSkByr8iH-11" value="" style="endArrow=classic;html=1;exitX=0.5;exitY=1;exitDx=0;exitDy=0;entryX=0.5;entryY=0;entryDx=0;entryDy=0;" edge="1" parent="WIyWlLk6GJQsqaUBKTNV-1" source="Qf0AHFLNtZsmSkByr8iH-5" target="Qf0AHFLNtZsmSkByr8iH-7">
          <mxGeometry width="50" height="50" relative="1" as="geometry">
            <mxPoint x="310" y="-725" as="sourcePoint" />
            <mxPoint x="120" y="-715" as="targetPoint" />
          </mxGeometry>
        </mxCell>
        <mxCell id="Qf0AHFLNtZsmSkByr8iH-14" value="&lt;blockquote style=&quot;margin: 0 0 0 40px ; border: none ; padding: 0px&quot;&gt;&lt;h1&gt;&lt;font style=&quot;font-size: 24px&quot;&gt;&amp;nbsp;:&amp;nbsp;&lt;/font&gt;نکات&amp;nbsp;&lt;/h1&gt;&lt;p&gt;&lt;font size=&quot;3&quot;&gt;دسترسی کامل به کل پنل&lt;/font&gt;&lt;/p&gt;&lt;p&gt;&lt;font size=&quot;3&quot;&gt;فقط برای خودمان !&lt;/font&gt;&lt;/p&gt;&lt;/blockquote&gt;" style="text;html=1;strokeColor=#b85450;fillColor=#f8cecc;spacing=5;spacingTop=-20;whiteSpace=wrap;overflow=hidden;rounded=0;align=right;verticalAlign=middle;labelPosition=center;verticalLabelPosition=middle;labelBorderColor=none;" vertex="1" parent="WIyWlLk6GJQsqaUBKTNV-1">
          <mxGeometry x="380" y="-1190" width="326" height="110" as="geometry" />
        </mxCell>
        <mxCell id="Qf0AHFLNtZsmSkByr8iH-15" value="&lt;blockquote style=&quot;margin: 0 0 0 40px ; border: none ; padding: 0px&quot;&gt;&lt;h1&gt;&lt;font style=&quot;font-size: 24px&quot;&gt;&amp;nbsp;: نکات&amp;nbsp;&amp;nbsp;&lt;/font&gt;&lt;/h1&gt;&lt;p&gt;&lt;font size=&quot;3&quot;&gt;دسترسی ها توسط سوپرادمین تعیین میشود&amp;nbsp;&lt;/font&gt;&lt;/p&gt;&lt;p&gt;&lt;font size=&quot;3&quot;&gt;برای کارفرماست&amp;nbsp;&lt;/font&gt;&lt;/p&gt;&lt;p&gt;&lt;font size=&quot;3&quot;&gt;به هیچ کاربری متصل نمیشود&lt;/font&gt;&lt;/p&gt;&lt;p&gt;&lt;span style=&quot;font-size: medium&quot;&gt;می تواند دسترسی پنل را به کاربران معمولی بدهد&lt;/span&gt;&lt;br&gt;&lt;/p&gt;&lt;p&gt;&lt;span style=&quot;font-size: medium&quot;&gt;محدودیتی در مشاهده فرم ها ندارند&lt;/span&gt;&lt;/p&gt;&lt;/blockquote&gt;" style="text;html=1;strokeColor=#6c8ebf;fillColor=#dae8fc;spacing=5;spacingTop=-20;whiteSpace=wrap;overflow=hidden;rounded=0;align=right;verticalAlign=middle;labelPosition=center;verticalLabelPosition=middle;labelBorderColor=none;" vertex="1" parent="WIyWlLk6GJQsqaUBKTNV-1">
          <mxGeometry x="380" y="-1025" width="330" height="210" as="geometry" />
        </mxCell>
        <mxCell id="Qf0AHFLNtZsmSkByr8iH-16" value="" style="endArrow=classic;html=1;exitX=1;exitY=0.5;exitDx=0;exitDy=0;entryX=0;entryY=0.5;entryDx=0;entryDy=0;" edge="1" parent="WIyWlLk6GJQsqaUBKTNV-1" source="Qf0AHFLNtZsmSkByr8iH-2" target="Qf0AHFLNtZsmSkByr8iH-14">
          <mxGeometry width="50" height="50" relative="1" as="geometry">
            <mxPoint x="360" y="-935" as="sourcePoint" />
            <mxPoint x="410" y="-985" as="targetPoint" />
          </mxGeometry>
        </mxCell>
        <mxCell id="Qf0AHFLNtZsmSkByr8iH-18" value="" style="endArrow=classic;html=1;exitX=1;exitY=0.5;exitDx=0;exitDy=0;entryX=0;entryY=0.5;entryDx=0;entryDy=0;" edge="1" parent="WIyWlLk6GJQsqaUBKTNV-1" source="Qf0AHFLNtZsmSkByr8iH-5" target="Qf0AHFLNtZsmSkByr8iH-15">
          <mxGeometry width="50" height="50" relative="1" as="geometry">
            <mxPoint x="180" y="-830" as="sourcePoint" />
            <mxPoint x="390" y="-830" as="targetPoint" />
          </mxGeometry>
        </mxCell>
        <mxCell id="Qf0AHFLNtZsmSkByr8iH-19" value="&lt;blockquote style=&quot;margin: 0 0 0 40px ; border: none ; padding: 0px&quot;&gt;&lt;h1&gt;&lt;font style=&quot;font-size: 24px&quot;&gt;&amp;nbsp;: نکات&lt;/font&gt;&lt;/h1&gt;&lt;p&gt;&lt;font size=&quot;3&quot;&gt;دسترسی قفقط به فرم های مربوط به خودشان&lt;/font&gt;&lt;/p&gt;&lt;p&gt;&lt;font size=&quot;3&quot;&gt;هرکاربری میتواند توسط ادمین پنل یک کاربر پنل شود&lt;/font&gt;&lt;/p&gt;&lt;p&gt;&lt;font size=&quot;3&quot;&gt;به عنوان مشتری شناخته می شود&amp;nbsp;&lt;/font&gt;&lt;/p&gt;&lt;/blockquote&gt;" style="text;html=1;strokeColor=#d6b656;fillColor=#fff2cc;spacing=5;spacingTop=-20;whiteSpace=wrap;overflow=hidden;rounded=0;align=right;verticalAlign=middle;labelPosition=center;verticalLabelPosition=middle;labelBorderColor=none;" vertex="1" parent="WIyWlLk6GJQsqaUBKTNV-1">
          <mxGeometry x="378" y="-777.5" width="330" height="150" as="geometry" />
        </mxCell>
        <mxCell id="Qf0AHFLNtZsmSkByr8iH-27" value="" style="endArrow=classic;html=1;exitX=1;exitY=0.5;exitDx=0;exitDy=0;entryX=0;entryY=0.5;entryDx=0;entryDy=0;" edge="1" parent="WIyWlLk6GJQsqaUBKTNV-1" source="Qf0AHFLNtZsmSkByr8iH-7" target="Qf0AHFLNtZsmSkByr8iH-19">
          <mxGeometry width="50" height="50" relative="1" as="geometry">
            <mxPoint x="360" y="-955" as="sourcePoint" />
            <mxPoint x="410" y="-1005" as="targetPoint" />
          </mxGeometry>
        </mxCell>
        <mxCell id="Qf0AHFLNtZsmSkByr8iH-33" style="edgeStyle=orthogonalEdgeStyle;rounded=0;orthogonalLoop=1;jettySize=auto;html=1;exitX=1;exitY=0.5;exitDx=0;exitDy=0;entryX=0;entryY=0.25;entryDx=0;entryDy=0;" edge="1" parent="WIyWlLk6GJQsqaUBKTNV-1" source="Qf0AHFLNtZsmSkByr8iH-30" target="Qf0AHFLNtZsmSkByr8iH-7">
          <mxGeometry relative="1" as="geometry" />
        </mxCell>
        <mxCell id="Qf0AHFLNtZsmSkByr8iH-30" value="&lt;span style=&quot;font-size: 18px&quot;&gt;مشتری ادمین&lt;/span&gt;" style="rounded=0;whiteSpace=wrap;html=1;strokeColor=#d79b00;align=center;verticalAlign=middle;fillColor=#ffe6cc;" vertex="1" parent="WIyWlLk6GJQsqaUBKTNV-1">
          <mxGeometry x="30" y="-775" width="95" height="60" as="geometry" />
        </mxCell>
        <mxCell id="Qf0AHFLNtZsmSkByr8iH-35" style="edgeStyle=orthogonalEdgeStyle;rounded=0;orthogonalLoop=1;jettySize=auto;html=1;exitX=1;exitY=0.5;exitDx=0;exitDy=0;entryX=0;entryY=0.75;entryDx=0;entryDy=0;" edge="1" parent="WIyWlLk6GJQsqaUBKTNV-1" source="Qf0AHFLNtZsmSkByr8iH-31" target="Qf0AHFLNtZsmSkByr8iH-7">
          <mxGeometry relative="1" as="geometry" />
        </mxCell>
        <mxCell id="Qf0AHFLNtZsmSkByr8iH-31" value="&lt;span style=&quot;font-size: 18px&quot;&gt;مشتری کارمند&lt;/span&gt;" style="rounded=0;whiteSpace=wrap;html=1;strokeColor=#d79b00;align=center;verticalAlign=middle;fillColor=#ffe6cc;" vertex="1" parent="WIyWlLk6GJQsqaUBKTNV-1">
          <mxGeometry x="30" y="-700" width="95" height="60" as="geometry" />
        </mxCell>
      </root>
    </mxGraphModel>
  </diagram>
</mxfile>
